<svg viewBox="0 0 100 100" xmlns="http://www.w3.org/2000/svg">
  <rect width="100" height="100" fill="white"></rect>
  <g stroke="#0077b6" fill="none" stroke-width="1.5">
    <!-- Bridge Cables -->
    <path d="M0,70 Q20,15 25,30 Q50,0 75,30 Q80,15 100,70" stroke="#0077b6" stroke-width="1.2"></path>
    
    <!-- Towers -->
    <rect x="20" y="25" width="3" height="45" fill="#0077b6"></rect>
    <rect x="77" y="25" width="3" height="45" fill="#0077b6"></rect>
    
    <!-- Horizontal tower beams -->
    <line x1="20" y1="35" x2="23" y2="35"></line>
    <line x1="20" y1="45" x2="23" y2="45"></line>
    <line x1="20" y1="55" x2="23" y2="55"></line>
    
    <line x1="77" y1="35" x2="80" y2="35"></line>
    <line x1="77" y1="45" x2="80" y2="45"></line>
    <line x1="77" y1="55" x2="80" y2="55"></line>

    <!-- Suspenders -->
    <line x1="25" y1="30" x2="25" y2="70"></line>
    <line x1="35" y1="20" x2="35" y2="70"></line>
    <line x1="45" y1="10" x2="45" y2="70"></line>
    <line x1="55" y1="10" x2="55" y2="70"></line>
    <line x1="65" y1="20" x2="65" y2="70"></line>
    <line x1="75" y1="30" x2="75" y2="70"></line>

    <!-- Road -->
    <line x1="0" y1="70" x2="100" y2="70" stroke="#0077b6" stroke-width="2.2"></line>

    <!-- Piers -->
    <rect x="18" y="70" width="7" height="5" fill="#0077b6"></rect>
    <rect x="75" y="70" width="7" height="5" fill="#0077b6"></rect>
  </g>
</svg>
